<svg xmlns="http://www.w3.org/2000/svg" width="1400" height="700" viewBox="0 0 1400 700" fill="none">
<defs><linearGradient id="sky" x2="1" y2="1"><stop stop-color="#3c313e"/><stop offset=".5" stop-color="#766073"/><stop offset="1" stop-color="#c59685"/></linearGradient><linearGradient id="hill" x2="0" y2="1"><stop stop-color="#957285"/><stop offset="1" stop-color="#322a39"/></linearGradient><linearGradient id="front" x2=".2" y2="1"><stop stop-color="#715763"/><stop offset="1" stop-color="#292331"/></linearGradient><radialGradient id="glow"><stop stop-color="#eacaad" stop-opacity=".45"/><stop offset="1" stop-color="#ebcbaa" stop-opacity="0"/></radialGradient><filter id="grain"><feTurbulence type="fractalNoise" baseFrequency=".7" numOctaves="3" stitchTiles="stitch"/><feColorMatrix type="saturate" values="0"/><feComponentTransfer><feFuncA type="linear" slope=".10"/></feComponentTransfer><feBlend in="SourceGraphic" mode="soft-light"/></filter></defs>
<g filter="url(#grain)"><path fill="url(#sky)" d="M0 0h1400v700H0z"/><ellipse cx="1060" cy="230" rx="370" ry="370" fill="url(#glow)"/><circle cx="1080" cy="180" r="72" fill="#edc6ad" opacity=".83"/><path d="M0 485C208 349 355 497 555 441c171-49 240-163 423-137 180 25 273 74 422 26v370H0z" fill="#a3818d"/><path d="M0 543c174-12 293-39 446-22 263 29 415-177 618-148 119 17 237 67 336 53v274H0z" fill="url(#hill)"/><path d="M0 612c330-117 478 71 756-7 269-75 347-128 644-100v195H0z" fill="url(#front)"/><path d="M774 495c163-65 324-79 543-43" stroke="#d4b2a6" stroke-opacity=".16"/><path d="M658 614c144-17 226-54 329-75" stroke="#d4b2a6" stroke-opacity=".12"/></g>
</svg>
